<svg xmlns="http://www.w3.org/2000/svg" width="39" height="40" viewBox="0 0 39 40">
    <g data-name="Groupe 151361" transform="rotate(-90 19.563 19.938)">
        <ellipse data-name="Ellipse 87" cx="20" cy="19.5" rx="20" ry="19.5" transform="translate(-.5 .375)" style="opacity:.16;fill:#33ab84"/>
        <path d="M12.171 8.443a1.04 1.04 0 0 0-1.47 0l-3.424 3.422L7.27 1.04a1.04 1.04 0 0 0-2.079 0L5.2 11.866 1.775 8.443A1.04 1.04 0 1 0 .3 9.913l3.727 3.728a3.119 3.119 0 0 0 4.411 0l3.728-3.728a1.04 1.04 0 0 0 .005-1.47z" transform="rotate(-45 28.054 -2.8)" style="fill:#33ab84"/>
    </g>
</svg>
